<?xml version="1.0" encoding="UTF-8" standalone="no"?><!DOCTYPE svg PUBLIC "-//W3C//DTD SVG 1.1//EN" "http://www.w3.org/Graphics/SVG/1.1/DTD/svg11.dtd"><svg width="100%" height="100%" viewBox="0 0 1056 1056" version="1.1" xmlns="http://www.w3.org/2000/svg" xmlns:xlink="http://www.w3.org/1999/xlink" xml:space="preserve" style="fill-rule:evenodd;clip-rule:evenodd;stroke-linejoin:round;stroke-miterlimit:1.41421;"><rect x="0" y="0" width="1055.49" height="1055.49" style="fill:none;"/><g><path d="M75.14,267.656l0,262.535l172.536,-162.928l-172.536,-99.607Z" style="fill:#0579a5;fill-rule:nonzero;"/><path d="M247.676,367.263l-172.536,162.928l172.536,0l0,-162.928Z" style="fill:#006f97;fill-rule:nonzero;"/><path d="M75.14,530.191l172.536,162.937l0,-162.937l-172.536,0Z" style="fill:#116581;fill-rule:nonzero;"/><path d="M75.14,792.753l172.536,-99.625l-172.536,-162.937l0,262.562Z" style="fill:#265a6e;fill-rule:nonzero;"/><path d="M75.14,267.656l172.536,99.607l54.833,-230.879l-227.369,131.272Z" style="fill:#0081b2;fill-rule:nonzero;"/><path d="M302.509,136.384l227.375,67.952l0,-199.225l-227.375,131.273Z" style="fill:#9abcd8;fill-rule:nonzero;"/><path d="M529.884,5.111l0,199.225l232.343,-65.084l-232.343,-134.141Z" style="fill:#265a6e;fill-rule:nonzero;"/><path d="M762.227,139.256l49.857,228.007l172.543,-99.607l-222.4,-128.4Z" style="fill:#0579a5;fill-rule:nonzero;"/><path d="M812.084,367.263l172.543,162.928l0,-262.535l-172.543,99.607Z" style="fill:#0081b2;fill-rule:nonzero;"/><path d="M984.627,792.753l0,-262.562l-172.543,162.937l172.543,99.625Z" style="fill:#9abcd8;fill-rule:nonzero;"/><path d="M247.676,367.263l141.109,-81.46l-86.276,-149.419l-54.833,230.879Z" style="fill:#028ebf;fill-rule:nonzero;"/><path d="M302.509,136.384l86.276,149.419l141.099,-81.467l-227.375,-67.952Z" style="fill:#63a5cd;fill-rule:nonzero;"/><path d="M529.884,1055.27l232.343,-134.137l-232.343,-65.077l0,199.214Z" style="fill:#116581;fill-rule:nonzero;"/><path d="M984.627,792.753l-172.543,-99.625l-49.857,228.005l222.4,-128.38Z" style="fill:#0b8aba;fill-rule:nonzero;"/><path d="M670.993,774.588l91.234,146.545l49.857,-228.005l-141.091,81.46Z" style="fill:#0579a5;fill-rule:nonzero;"/><path d="M529.884,856.056l232.343,65.077l-91.234,-146.545l-141.109,81.468Z" style="fill:#265a6e;fill-rule:nonzero;"/><g><path d="M529.884,856.056l-227.375,67.96l227.375,131.254l0,-199.214Z" style="fill:#006f97;fill-rule:nonzero;"/></g><path d="M75.14,792.753l227.369,131.263l-54.833,-230.888l-172.536,99.625Z" style="fill:#63a5cd;fill-rule:nonzero;"/><path d="M247.676,693.128l54.833,230.888l86.276,-149.428l-141.109,-81.46Z" style="fill:#0081b2;fill-rule:nonzero;"/><path d="M388.785,774.588l-86.276,149.428l227.375,-67.96l-141.099,-81.468Z" style="fill:#0579a5;fill-rule:nonzero;"/><path d="M812.084,367.263l0,162.928l172.543,0l-172.543,-162.928Z" style="fill:#028ebf;fill-rule:nonzero;"/><path d="M984.627,530.191l-172.543,0l0,162.937l172.543,-162.937Z" style="fill:#63a5cd;fill-rule:nonzero;"/><path d="M762.227,139.252l-232.343,65.084l141.109,81.467l91.234,-146.547l0,-0.004Z" style="fill:#116581;fill-rule:nonzero;"/><path d="M762.227,139.256l-91.234,146.547l141.091,81.46l-49.857,-228.007Z" style="fill:#006f97;fill-rule:nonzero;"/></g><text x="345.012px" y="686.285px" style="font-family:'CopperplateGothic-Bold', 'Copperplate Gothic Bold', sans-serif;font-size:463.151px;fill:#0091bf;">B</text></svg>